{
    "asset" : {
        "generator" : "Khronos glTF Blender I/O v1.0.5",
        "version" : "2.0"
    },
    "extensionsUsed" : [
        "KHR_texture_transform"
    ],
    "extensionsRequired" : [
        "KHR_texture_transform"
    ],
    "scene" : 0,
    "scenes" : [
        {
            "name" : "Scene",
            "nodes" : [
                0,
                1,
                2,
                3,
                4,
                5,
                6
            ]
        }
    ],
    "nodes" : [
        {
            "mesh" : 0,
            "name" : "Cube.002",
            "translation" : [
                2.9443860054016113,
                0,
                0
            ]
        },
        {
            "mesh" : 1,
            "name" : "Table1",
            "translation" : [
                6.818307876586914,
                0,
                0
            ]
        },
        {
            "mesh" : 2,
            "name" : "Marble Floor.000",
            "translation" : [
                0,
                -0.01201039832085371,
                0
            ]
        },
        {
            "name" : "Cube"
        },
        {
            "mesh" : 3,
            "name" : "Cube.010"
        },
        {
            "mesh" : 4,
            "name" : "Plane",
            "translation" : [
                0,
                -0.01563619077205658,
                0
            ]
        },
        {
            "mesh" : 5,
            "name" : "Cube.006"
        }
    ],
    "materials" : [
        {
            "doubleSided" : true,
            "name" : "WoodAdvanced.001",
            "normalTexture" : {
                "index" : 0,
                "texCoord" : 0
            },
            "pbrMetallicRoughness" : {
                "baseColorTexture" : {
                    "index" : 1,
                    "texCoord" : 0
                },
                "metallicFactor" : 0,
                "roughnessFactor" : 0.5
            }
        },
        {
            "doubleSided" : true,
            "name" : "TableMaterial",
            "normalTexture" : {
                "index" : 2,
                "texCoord" : 0
            },
            "pbrMetallicRoughness" : {
                "baseColorTexture" : {
                    "index" : 3,
                    "texCoord" : 0
                },
                "metallicFactor" : 0,
                "roughnessFactor" : 0.5
            }
        },
        {
            "doubleSided" : true,
            "name" : "Material",
            "normalTexture" : {
                "index" : 4,
                "texCoord" : 0
            },
            "pbrMetallicRoughness" : {
                "baseColorTexture" : {
                    "index" : 5,
                    "texCoord" : 0
                },
                "metallicFactor" : 0,
                "roughnessFactor" : 0.25
            }
        },
        {
            "doubleSided" : true,
            "name" : "PillarTexture",
            "pbrMetallicRoughness" : {
                "baseColorTexture" : {
                    "index" : 6,
                    "texCoord" : 0
                },
                "metallicFactor" : 0.4954545497894287,
                "roughnessFactor" : 0.5
            }
        },
        {
            "doubleSided" : true,
            "name" : "Material.002",
            "normalTexture" : {
                "extensions" : {
                    "KHR_texture_transform" : {
                        "offset" : [
                            0,
                            -5
                        ],
                        "scale" : [
                            6,
                            6
                        ]
                    }
                },
                "index" : 7,
                "texCoord" : 0
            },
            "pbrMetallicRoughness" : {
                "baseColorTexture" : {
                    "extensions" : {
                        "KHR_texture_transform" : {
                            "offset" : [
                                0,
                                -5
                            ],
                            "scale" : [
                                6,
                                6
                            ]
                        }
                    },
                    "index" : 8,
                    "texCoord" : 0
                },
                "metallicFactor" : 0,
                "roughnessFactor" : 0.5
            }
        },
        {
            "doubleSided" : true,
            "name" : "RoofTexture",
            "pbrMetallicRoughness" : {
                "baseColorTexture" : {
                    "index" : 9,
                    "texCoord" : 0
                },
                "metallicFactor" : 0.028787897899746895,
                "roughnessFactor" : 0.5
            }
        }
    ],
    "meshes" : [
        {
            "name" : "Cube.003",
            "primitives" : [
                {
                    "attributes" : {
                        "POSITION" : 0,
                        "NORMAL" : 1,
                        "TEXCOORD_0" : 2
                    },
                    "indices" : 3,
                    "material" : 0
                }
            ]
        },
        {
            "name" : "Cube",
            "primitives" : [
                {
                    "attributes" : {
                        "POSITION" : 4,
                        "NORMAL" : 5,
                        "TEXCOORD_0" : 6
                    },
                    "indices" : 7,
                    "material" : 1
                }
            ]
        },
        {
            "name" : "Cube.001",
            "primitives" : [
                {
                    "attributes" : {
                        "POSITION" : 8,
                        "NORMAL" : 9,
                        "TEXCOORD_0" : 10
                    },
                    "indices" : 11,
                    "material" : 2
                }
            ]
        },
        {
            "name" : "Cube.014",
            "primitives" : [
                {
                    "attributes" : {
                        "POSITION" : 12,
                        "NORMAL" : 13,
                        "TEXCOORD_0" : 14
                    },
                    "indices" : 15,
                    "material" : 3
                }
            ]
        },
        {
            "name" : "Plane",
            "primitives" : [
                {
                    "attributes" : {
                        "POSITION" : 16,
                        "NORMAL" : 17,
                        "TEXCOORD_0" : 18
                    },
                    "indices" : 19,
                    "material" : 4
                }
            ]
        },
        {
            "name" : "Cube.010",
            "primitives" : [
                {
                    "attributes" : {
                        "POSITION" : 20,
                        "NORMAL" : 21,
                        "TEXCOORD_0" : 22
                    },
                    "indices" : 23,
                    "material" : 5
                }
            ]
        }
    ],
    "textures" : [
        {
            "source" : 0
        },
        {
            "source" : 1
        },
        {
            "source" : 2
        },
        {
            "source" : 3
        },
        {
            "source" : 4
        },
        {
            "source" : 5
        },
        {
            "source" : 6
        },
        {
            "source" : 7
        },
        {
            "source" : 8
        },
        {
            "source" : 9
        }
    ],
    "images" : [
        {
            "mimeType" : "image/png",
            "name" : "ChairNormal",
            "uri" : "ChairNormal.png"
        },
        {
            "mimeType" : "image/png",
            "name" : "WoodChair",
            "uri" : "WoodChair.png"
        },
        {
            "mimeType" : "image/png",
            "name" : "TableNormal",
            "uri" : "TableNormal.png"
        },
        {
            "mimeType" : "image/png",
            "name" : "WoodTable",
            "uri" : "WoodTable.png"
        },
        {
            "mimeType" : "image/png",
            "name" : "FloorNormal",
            "uri" : "FloorNormal.png"
        },
        {
            "mimeType" : "image/png",
            "name" : "Ceramic Floor",
            "uri" : "Ceramic Floor.png"
        },
        {
            "mimeType" : "image/png",
            "name" : "Pillar",
            "uri" : "Pillar.png"
        },
        {
            "mimeType" : "image/jpeg",
            "name" : "forrest_ground_01_nor_4k",
            "uri" : "forrest_ground_01_nor_4k.jpg"
        },
        {
            "mimeType" : "image/jpeg",
            "name" : "forrest_ground_01_diff_4k",
            "uri" : "forrest_ground_01_diff_4k.jpg"
        },
        {
            "mimeType" : "image/png",
            "name" : "Roof",
            "uri" : "Roof.png"
        }
    ],
    "accessors" : [
        {
            "bufferView" : 0,
            "componentType" : 5126,
            "count" : 120,
            "max" : [
                0.8863157629966736,
                1.8613178730010986,
                3.3999993801116943
            ],
            "min" : [
                -0.8863155841827393,
                -0.013264656066894531,
                -3.400000810623169
            ],
            "type" : "VEC3"
        },
        {
            "bufferView" : 1,
            "componentType" : 5126,
            "count" : 120,
            "type" : "VEC3"
        },
        {
            "bufferView" : 2,
            "componentType" : 5126,
            "count" : 120,
            "type" : "VEC2"
        },
        {
            "bufferView" : 3,
            "componentType" : 5123,
            "count" : 180,
            "type" : "SCALAR"
        },
        {
            "bufferView" : 4,
            "componentType" : 5126,
            "count" : 120,
            "max" : [
                2.6054847240448,
                3.1751644611358643,
                2.6054847240448
            ],
            "min" : [
                -2.6054847240448,
                -0.013820558786392212,
                -2.6054847240448
            ],
            "type" : "VEC3"
        },
        {
            "bufferView" : 5,
            "componentType" : 5126,
            "count" : 120,
            "type" : "VEC3"
        },
        {
            "bufferView" : 6,
            "componentType" : 5126,
            "count" : 120,
            "type" : "VEC2"
        },
        {
            "bufferView" : 7,
            "componentType" : 5123,
            "count" : 180,
            "type" : "SCALAR"
        },
        {
            "bufferView" : 8,
            "componentType" : 5126,
            "count" : 400,
            "max" : [
                20.12779998779297,
                0,
                40.61714553833008
            ],
            "min" : [
                -20.127756118774414,
                0,
                -40.62316131591797
            ],
            "type" : "VEC3"
        },
        {
            "bufferView" : 9,
            "componentType" : 5126,
            "count" : 400,
            "type" : "VEC3"
        },
        {
            "bufferView" : 10,
            "componentType" : 5126,
            "count" : 400,
            "type" : "VEC2"
        },
        {
            "bufferView" : 11,
            "componentType" : 5123,
            "count" : 600,
            "type" : "SCALAR"
        },
        {
            "bufferView" : 12,
            "componentType" : 5126,
            "count" : 720,
            "max" : [
                21.09449577331543,
                14.257665634155273,
                41.82758712768555
            ],
            "min" : [
                -21.09450912475586,
                0.007112763822078705,
                -41.827598571777344
            ],
            "type" : "VEC3"
        },
        {
            "bufferView" : 13,
            "componentType" : 5126,
            "count" : 720,
            "type" : "VEC3"
        },
        {
            "bufferView" : 14,
            "componentType" : 5126,
            "count" : 720,
            "type" : "VEC2"
        },
        {
            "bufferView" : 15,
            "componentType" : 5123,
            "count" : 1512,
            "type" : "SCALAR"
        },
        {
            "bufferView" : 16,
            "componentType" : 5126,
            "count" : 48,
            "max" : [
                25.2412109375,
                0,
                45.703956604003906
            ],
            "min" : [
                -25.2412109375,
                0,
                -45.703956604003906
            ],
            "type" : "VEC3"
        },
        {
            "bufferView" : 17,
            "componentType" : 5126,
            "count" : 48,
            "type" : "VEC3"
        },
        {
            "bufferView" : 18,
            "componentType" : 5126,
            "count" : 48,
            "type" : "VEC2"
        },
        {
            "bufferView" : 19,
            "componentType" : 5123,
            "count" : 72,
            "type" : "SCALAR"
        },
        {
            "bufferView" : 20,
            "componentType" : 5126,
            "count" : 24,
            "max" : [
                21.977025985717773,
                15.160080909729004,
                41.483917236328125
            ],
            "min" : [
                -21.977025985717773,
                13.532392501831055,
                -41.483917236328125
            ],
            "type" : "VEC3"
        },
        {
            "bufferView" : 21,
            "componentType" : 5126,
            "count" : 24,
            "type" : "VEC3"
        },
        {
            "bufferView" : 22,
            "componentType" : 5126,
            "count" : 24,
            "type" : "VEC2"
        },
        {
            "bufferView" : 23,
            "componentType" : 5123,
            "count" : 36,
            "type" : "SCALAR"
        }
    ],
    "bufferViews" : [
        {
            "buffer" : 0,
            "byteLength" : 1440,
            "byteOffset" : 0
        },
        {
            "buffer" : 0,
            "byteLength" : 1440,
            "byteOffset" : 1440
        },
        {
            "buffer" : 0,
            "byteLength" : 960,
            "byteOffset" : 2880
        },
        {
            "buffer" : 0,
            "byteLength" : 360,
            "byteOffset" : 3840
        },
        {
            "buffer" : 0,
            "byteLength" : 1440,
            "byteOffset" : 4200
        },
        {
            "buffer" : 0,
            "byteLength" : 1440,
            "byteOffset" : 5640
        },
        {
            "buffer" : 0,
            "byteLength" : 960,
            "byteOffset" : 7080
        },
        {
            "buffer" : 0,
            "byteLength" : 360,
            "byteOffset" : 8040
        },
        {
            "buffer" : 0,
            "byteLength" : 4800,
            "byteOffset" : 8400
        },
        {
            "buffer" : 0,
            "byteLength" : 4800,
            "byteOffset" : 13200
        },
        {
            "buffer" : 0,
            "byteLength" : 3200,
            "byteOffset" : 18000
        },
        {
            "buffer" : 0,
            "byteLength" : 1200,
            "byteOffset" : 21200
        },
        {
            "buffer" : 0,
            "byteLength" : 8640,
            "byteOffset" : 22400
        },
        {
            "buffer" : 0,
            "byteLength" : 8640,
            "byteOffset" : 31040
        },
        {
            "buffer" : 0,
            "byteLength" : 5760,
            "byteOffset" : 39680
        },
        {
            "buffer" : 0,
            "byteLength" : 3024,
            "byteOffset" : 45440
        },
        {
            "buffer" : 0,
            "byteLength" : 576,
            "byteOffset" : 48464
        },
        {
            "buffer" : 0,
            "byteLength" : 576,
            "byteOffset" : 49040
        },
        {
            "buffer" : 0,
            "byteLength" : 384,
            "byteOffset" : 49616
        },
        {
            "buffer" : 0,
            "byteLength" : 144,
            "byteOffset" : 50000
        },
        {
            "buffer" : 0,
            "byteLength" : 288,
            "byteOffset" : 50144
        },
        {
            "buffer" : 0,
            "byteLength" : 288,
            "byteOffset" : 50432
        },
        {
            "buffer" : 0,
            "byteLength" : 192,
            "byteOffset" : 50720
        },
        {
            "buffer" : 0,
            "byteLength" : 72,
            "byteOffset" : 50912
        }
    ],
    "buffers" : [
        {
            "byteLength" : 50984,
            "uri" : "Plasno.bin"
        }
    ]
}
